<?xml version="1.0" encoding="UTF-8"?>
<svg width="32px" height="20px" viewBox="0 0 32 20" version="1.1" xmlns="http://www.w3.org/2000/svg" xmlns:xlink="http://www.w3.org/1999/xlink">
    <!-- Generator: Sketch 52.4 (67378) - http://www.bohemiancoding.com/sketch -->
    <title>behance</title>
    <desc>Created with Sketch.</desc>
    <g id="Page-1" stroke="none" stroke-width="1" fill="none" fill-rule="evenodd">
        <g id="Home" transform="translate(-704.000000, -2466.000000)" fill="#FFFFFF" fill-rule="nonzero">
            <g id="footer" transform="translate(0.000000, 2418.000000)">
                <g id="Group-2" transform="translate(592.000000, 48.000000)">
                    <g id="behance" transform="translate(112.000000, 0.000000)">
                        <path d="M29.3333333,2.66666667 L20,2.66666667 L20,0 L29.3333333,0 L29.3333333,2.66666667 Z M31.6346667,16 C31.0453333,17.7293333 28.9293333,20 24.8333333,20 C20.7346667,20 17.4146667,17.6946667 17.4146667,12.4333333 C17.4146667,7.22 20.5146667,4.54 24.7026667,4.54 C28.812,4.54 31.3213333,6.916 31.8693333,10.4413333 C31.9733333,11.116 32.0146667,12.0253333 31.996,13.2946667 L21.2933333,13.2946667 C21.4666667,17.576 25.9373333,17.7106667 27.4106667,16 L31.6346667,16 Z M21.3866667,10.6666667 L28.0066667,10.6666667 C27.8666667,8.604 26.492,7.708 24.704,7.708 C22.7493333,7.708 21.668,8.732 21.3866667,10.6666667 Z M8.62133333,19.984 L-8.8817842e-16,19.984 L-8.8817842e-16,0.028 L9.27066667,0.028 C16.572,0.136 16.7106667,7.28666667 12.8973333,9.236 C17.512,10.916 17.6666667,19.984 8.62133333,19.984 Z M4,8 L8.77866667,8 C12.1226667,8 12.6533333,4 8.36266667,4 L4,4 L4,8 Z M8.52133333,12 L4,12 L4,16.0213333 L8.45466667,16.0213333 C12.528,16.0213333 12.2786667,12 8.52133333,12 Z" id="Shape"></path>
                    </g>
                </g>
            </g>
        </g>
    </g>
</svg>