<?xml version="1.0" encoding="UTF-8"?>
<svg width="60px" height="60px" viewBox="0 0 60 60" version="1.1" xmlns="http://www.w3.org/2000/svg" xmlns:xlink="http://www.w3.org/1999/xlink">
    <!-- Generator: Sketch 52.4 (67378) - http://www.bohemiancoding.com/sketch -->
    <title>Logo</title>
    <desc>Created with Sketch.</desc>
    <g id="Page-1" stroke="none" stroke-width="1" fill="none" fill-rule="evenodd">
        <g id="Home" transform="translate(-140.000000, -74.000000)">
            <g id="Logo" transform="translate(140.000000, 69.000000)">
                <g id="Group" transform="translate(0.000000, 5.000000)">
                    <path d="M19.4865902,41.6619718 C17.2305276,41.6619718 15.1906138,41.1554015 13.3667876,40.1422457 C11.5429613,39.1290899 10.1092234,37.7237659 9.06553091,35.9262314 C8.02183842,34.1286969 7.5,32.0969688 7.5,29.8309859 C7.5,27.5650031 8.02183842,25.5332749 9.06553091,23.7357404 C10.1092234,21.9382059 11.5429613,20.5328819 13.3667876,19.5197261 C15.1906138,18.5065703 17.2410698,18 19.5182171,18 C21.4369245,18 23.1711148,18.3486075 24.72084,19.045833 C26.2705652,19.7430585 27.5725257,20.7453051 28.6267606,22.0526029 L25.3375643,25.1901019 C23.8405508,23.4034616 21.9851253,22.5101549 19.7712322,22.5101549 C18.4007269,22.5101549 17.1778328,22.8206334 16.1025133,23.4415999 C15.0271937,24.0625663 14.1890896,24.9286381 13.5881758,26.0398413 C12.9872619,27.1510444 12.6868095,28.4147466 12.6868095,29.8309859 C12.6868095,31.2472252 12.9872619,32.5109274 13.5881758,33.6221306 C14.1890896,34.7333337 15.0271937,35.5994055 16.1025133,36.220372 C17.1778328,36.8413384 18.4007269,37.151817 19.7712322,37.151817 C21.9851253,37.151817 23.8405508,36.2476162 25.3375643,34.4391876 L28.6267606,37.5766866 C27.5725257,38.9057727 26.2652941,39.9189133 24.7050266,40.6161388 C23.144759,41.3133643 21.4052976,41.6619718 19.4865902,41.6619718 Z M42.5544121,18.8450704 C44.5397111,18.8450704 46.2634797,19.181888 47.7257698,19.8555332 C49.1880598,20.5291784 50.314113,21.4853057 51.1039632,22.7239437 C51.8938133,23.9625816 52.2887324,25.4293678 52.2887324,27.1243461 C52.2887324,28.7975939 51.8938133,30.2589475 51.1039632,31.5084507 C50.314113,32.7579539 49.1880598,33.7140812 47.7257698,34.3768612 C46.2634797,35.0396411 44.5397111,35.3710262 42.5544121,35.3710262 L38.0394807,35.3710262 L38.0394807,41.6619718 L32.8521127,41.6619718 L32.8521127,18.8450704 L42.5544121,18.8450704 Z M42.2892336,30.6760563 C43.899186,30.6760563 45.1231726,30.3474211 45.96123,29.6901408 C46.7992874,29.0328606 47.2183099,28.0991192 47.2183099,26.8888889 C47.2183099,25.6577925 46.7992874,24.7136183 45.96123,24.056338 C45.1231726,23.3990577 43.899186,23.0704225 42.2892336,23.0704225 L37.9225352,23.0704225 L37.9225352,30.6760563 L42.2892336,30.6760563 Z" id="CP" fill="#FFFFFF"></path>
                    <rect id="Rectangle" stroke="#FFFFFF" stroke-width="3" fill-rule="nonzero" x="1.5" y="1.5" width="57" height="57"></rect>
                </g>
            </g>
        </g>
    </g>
</svg>